%TF.GenerationSoftware,KiCad,Pcbnew,7.0.7*%
%TF.CreationDate,2024-03-23T19:40:35-05:00*%
%TF.ProjectId,DCDC-FusePCB,44434443-2d46-4757-9365-5043422e6b69,rev?*%
%TF.SameCoordinates,Original*%
%TF.FileFunction,Copper,L1,Top*%
%TF.FilePolarity,Positive*%
%FSLAX46Y46*%
G04 Gerber Fmt 4.6, Leading zero omitted, Abs format (unit mm)*
G04 Created by KiCad (PCBNEW 7.0.7) date 2024-03-23 19:40:35*
%MOMM*%
%LPD*%
G01*
G04 APERTURE LIST*
%TA.AperFunction,ComponentPad*%
%ADD10R,3.430000X3.780000*%
%TD*%
%TA.AperFunction,ComponentPad*%
%ADD11C,1.905000*%
%TD*%
G04 APERTURE END LIST*
D10*
%TO.P,J2,1,Pin_1*%
%TO.N,Net-(J1-Pin_1)*%
X123500000Y-97235000D03*
X126680000Y-97235000D03*
%TO.P,J2,2,Pin_2*%
%TO.N,Net-(J2-Pin_2)*%
X123500000Y-89745000D03*
X126680000Y-89745000D03*
%TD*%
D11*
%TO.P,F1,1*%
%TO.N,Net-(J2-Pin_2)*%
X127570000Y-74000000D03*
%TO.P,F1,2*%
%TO.N,Net-(J1-Pin_2)*%
X151700000Y-74000000D03*
%TD*%
D10*
%TO.P,J1,1,Pin_1*%
%TO.N,Net-(J1-Pin_1)*%
X152000000Y-96990000D03*
X155180000Y-96990000D03*
%TO.P,J1,2,Pin_2*%
%TO.N,Net-(J1-Pin_2)*%
X152000000Y-89500000D03*
X155180000Y-89500000D03*
%TD*%
%TA.AperFunction,Conductor*%
%TO.N,Net-(J1-Pin_1)*%
G36*
X158943039Y-94264685D02*
G01*
X158988794Y-94317489D01*
X159000000Y-94369000D01*
X159000000Y-102121000D01*
X158980315Y-102188039D01*
X158927511Y-102233794D01*
X158876000Y-102245000D01*
X119624000Y-102245000D01*
X119556961Y-102225315D01*
X119511206Y-102172511D01*
X119500000Y-102121000D01*
X119500000Y-98735000D01*
X121285000Y-98735000D01*
X121285000Y-99172844D01*
X121291401Y-99232372D01*
X121291403Y-99232379D01*
X121341645Y-99367086D01*
X121341649Y-99367093D01*
X121427809Y-99482187D01*
X121427812Y-99482190D01*
X121542906Y-99568350D01*
X121542913Y-99568354D01*
X121677620Y-99618596D01*
X121677627Y-99618598D01*
X121737155Y-99624999D01*
X121737172Y-99625000D01*
X122000000Y-99625000D01*
X122000000Y-98735000D01*
X125000000Y-98735000D01*
X125000000Y-99625000D01*
X125180000Y-99625000D01*
X128179999Y-99625000D01*
X128442828Y-99625000D01*
X128442844Y-99624999D01*
X128502372Y-99618598D01*
X128502379Y-99618596D01*
X128637086Y-99568354D01*
X128637093Y-99568350D01*
X128752187Y-99482190D01*
X128752190Y-99482187D01*
X128838350Y-99367093D01*
X128838354Y-99367086D01*
X128888596Y-99232379D01*
X128888598Y-99232372D01*
X128894999Y-99172844D01*
X128895000Y-99172827D01*
X128895000Y-98735000D01*
X128180000Y-98735000D01*
X128179999Y-99625000D01*
X125180000Y-99625000D01*
X125180000Y-98735000D01*
X125000000Y-98735000D01*
X122000000Y-98735000D01*
X121285000Y-98735000D01*
X119500000Y-98735000D01*
X119500000Y-98490000D01*
X149785000Y-98490000D01*
X149785000Y-98927844D01*
X149791401Y-98987372D01*
X149791403Y-98987379D01*
X149841645Y-99122086D01*
X149841649Y-99122093D01*
X149927809Y-99237187D01*
X149927812Y-99237190D01*
X150042906Y-99323350D01*
X150042913Y-99323354D01*
X150177620Y-99373596D01*
X150177627Y-99373598D01*
X150237155Y-99379999D01*
X150237172Y-99380000D01*
X150500000Y-99380000D01*
X150500000Y-98490000D01*
X153500000Y-98490000D01*
X153500000Y-99380000D01*
X153680000Y-99380000D01*
X153680000Y-98490000D01*
X156680000Y-98490000D01*
X156680000Y-99380000D01*
X156942828Y-99380000D01*
X156942844Y-99379999D01*
X157002372Y-99373598D01*
X157002379Y-99373596D01*
X157137086Y-99323354D01*
X157137093Y-99323350D01*
X157252187Y-99237190D01*
X157252190Y-99237187D01*
X157338350Y-99122093D01*
X157338354Y-99122086D01*
X157388596Y-98987379D01*
X157388598Y-98987372D01*
X157394999Y-98927844D01*
X157395000Y-98927827D01*
X157395000Y-98490000D01*
X156680000Y-98490000D01*
X153680000Y-98490000D01*
X153500000Y-98490000D01*
X150500000Y-98490000D01*
X149785000Y-98490000D01*
X119500000Y-98490000D01*
X119500000Y-97328542D01*
X122610000Y-97328542D01*
X122648897Y-97511539D01*
X122648897Y-97511540D01*
X122724990Y-97682449D01*
X122747907Y-97713991D01*
X122834958Y-97833806D01*
X122834959Y-97833807D01*
X122834960Y-97833808D01*
X122834962Y-97833811D01*
X122919535Y-97909959D01*
X122973990Y-97958991D01*
X123136011Y-98052534D01*
X123313939Y-98110346D01*
X123453361Y-98125000D01*
X123453366Y-98125000D01*
X123546634Y-98125000D01*
X123546639Y-98125000D01*
X123686061Y-98110346D01*
X123863989Y-98052534D01*
X124026010Y-97958991D01*
X124134919Y-97860928D01*
X124165037Y-97833811D01*
X124165037Y-97833809D01*
X124165042Y-97833806D01*
X124275008Y-97682451D01*
X124351102Y-97511540D01*
X124390000Y-97328543D01*
X124390000Y-97328542D01*
X125790000Y-97328542D01*
X125828897Y-97511539D01*
X125828897Y-97511540D01*
X125904990Y-97682449D01*
X125927907Y-97713991D01*
X126014958Y-97833806D01*
X126014959Y-97833807D01*
X126014960Y-97833808D01*
X126014962Y-97833811D01*
X126099535Y-97909959D01*
X126153990Y-97958991D01*
X126316011Y-98052534D01*
X126493939Y-98110346D01*
X126633361Y-98125000D01*
X126633366Y-98125000D01*
X126726634Y-98125000D01*
X126726639Y-98125000D01*
X126866061Y-98110346D01*
X127043989Y-98052534D01*
X127206010Y-97958991D01*
X127314919Y-97860928D01*
X127345037Y-97833811D01*
X127345037Y-97833809D01*
X127345042Y-97833806D01*
X127455008Y-97682451D01*
X127531102Y-97511540D01*
X127570000Y-97328543D01*
X127570000Y-97141457D01*
X127557690Y-97083542D01*
X151110000Y-97083542D01*
X151148897Y-97266539D01*
X151148897Y-97266540D01*
X151224990Y-97437449D01*
X151278820Y-97511539D01*
X151334958Y-97588806D01*
X151334959Y-97588807D01*
X151334960Y-97588808D01*
X151334962Y-97588811D01*
X151419535Y-97664959D01*
X151473990Y-97713991D01*
X151636011Y-97807534D01*
X151813939Y-97865346D01*
X151953361Y-97880000D01*
X151953366Y-97880000D01*
X152046634Y-97880000D01*
X152046639Y-97880000D01*
X152186061Y-97865346D01*
X152363989Y-97807534D01*
X152526010Y-97713991D01*
X152634919Y-97615928D01*
X152665037Y-97588811D01*
X152665037Y-97588809D01*
X152665042Y-97588806D01*
X152775008Y-97437451D01*
X152851102Y-97266540D01*
X152890000Y-97083543D01*
X152890000Y-97083542D01*
X154290000Y-97083542D01*
X154328897Y-97266539D01*
X154328897Y-97266540D01*
X154404990Y-97437449D01*
X154458820Y-97511539D01*
X154514958Y-97588806D01*
X154514959Y-97588807D01*
X154514960Y-97588808D01*
X154514962Y-97588811D01*
X154599535Y-97664959D01*
X154653990Y-97713991D01*
X154816011Y-97807534D01*
X154993939Y-97865346D01*
X155133361Y-97880000D01*
X155133366Y-97880000D01*
X155226634Y-97880000D01*
X155226639Y-97880000D01*
X155366061Y-97865346D01*
X155543989Y-97807534D01*
X155706010Y-97713991D01*
X155814919Y-97615928D01*
X155845037Y-97588811D01*
X155845037Y-97588809D01*
X155845042Y-97588806D01*
X155955008Y-97437451D01*
X156031102Y-97266540D01*
X156070000Y-97083543D01*
X156070000Y-96896457D01*
X156031102Y-96713460D01*
X156031102Y-96713459D01*
X155955009Y-96542550D01*
X155927516Y-96504710D01*
X155845042Y-96391194D01*
X155845039Y-96391191D01*
X155845037Y-96391188D01*
X155754440Y-96309615D01*
X155706010Y-96266009D01*
X155543989Y-96172466D01*
X155543988Y-96172465D01*
X155543987Y-96172465D01*
X155366062Y-96114654D01*
X155342823Y-96112211D01*
X155226639Y-96100000D01*
X155133361Y-96100000D01*
X155033773Y-96110467D01*
X154993937Y-96114654D01*
X154816012Y-96172465D01*
X154653991Y-96266008D01*
X154514962Y-96391188D01*
X154514960Y-96391191D01*
X154404990Y-96542550D01*
X154328897Y-96713459D01*
X154328897Y-96713460D01*
X154290000Y-96896457D01*
X154290000Y-97083542D01*
X152890000Y-97083542D01*
X152890000Y-96896457D01*
X152851102Y-96713460D01*
X152851102Y-96713459D01*
X152775009Y-96542550D01*
X152747516Y-96504710D01*
X152665042Y-96391194D01*
X152665039Y-96391191D01*
X152665037Y-96391188D01*
X152574440Y-96309615D01*
X152526010Y-96266009D01*
X152363989Y-96172466D01*
X152363988Y-96172465D01*
X152363987Y-96172465D01*
X152186062Y-96114654D01*
X152162824Y-96112211D01*
X152046639Y-96100000D01*
X151953361Y-96100000D01*
X151853773Y-96110467D01*
X151813937Y-96114654D01*
X151636012Y-96172465D01*
X151473991Y-96266008D01*
X151334962Y-96391188D01*
X151334960Y-96391191D01*
X151224990Y-96542550D01*
X151148897Y-96713459D01*
X151148897Y-96713460D01*
X151110000Y-96896457D01*
X151110000Y-97083542D01*
X127557690Y-97083542D01*
X127531102Y-96958460D01*
X127503497Y-96896457D01*
X127455009Y-96787550D01*
X127401178Y-96713459D01*
X127345042Y-96636194D01*
X127345039Y-96636191D01*
X127345037Y-96636188D01*
X127241040Y-96542550D01*
X127206010Y-96511009D01*
X127043989Y-96417466D01*
X127043988Y-96417465D01*
X127043987Y-96417465D01*
X126866062Y-96359654D01*
X126842824Y-96357211D01*
X126726639Y-96345000D01*
X126633361Y-96345000D01*
X126533773Y-96355467D01*
X126493937Y-96359654D01*
X126316012Y-96417465D01*
X126153991Y-96511008D01*
X126014962Y-96636188D01*
X126014960Y-96636191D01*
X125904990Y-96787550D01*
X125828897Y-96958459D01*
X125828897Y-96958460D01*
X125790000Y-97141457D01*
X125790000Y-97328542D01*
X124390000Y-97328542D01*
X124390000Y-97141457D01*
X124351102Y-96958460D01*
X124323497Y-96896457D01*
X124275009Y-96787550D01*
X124221178Y-96713459D01*
X124165042Y-96636194D01*
X124165039Y-96636191D01*
X124165037Y-96636188D01*
X124061040Y-96542550D01*
X124026010Y-96511009D01*
X123863989Y-96417466D01*
X123863988Y-96417465D01*
X123863987Y-96417465D01*
X123686062Y-96359654D01*
X123662823Y-96357211D01*
X123546639Y-96345000D01*
X123453361Y-96345000D01*
X123353773Y-96355467D01*
X123313937Y-96359654D01*
X123136012Y-96417465D01*
X122973991Y-96511008D01*
X122834962Y-96636188D01*
X122834960Y-96636191D01*
X122724990Y-96787550D01*
X122648897Y-96958459D01*
X122648897Y-96958460D01*
X122610000Y-97141457D01*
X122610000Y-97328542D01*
X119500000Y-97328542D01*
X119500000Y-95735000D01*
X121285000Y-95735000D01*
X122000000Y-95735000D01*
X122000000Y-94845000D01*
X125000000Y-94845000D01*
X125000000Y-95735000D01*
X125180000Y-95735000D01*
X125180000Y-95734999D01*
X128179999Y-95734999D01*
X128180000Y-95735000D01*
X128895000Y-95735000D01*
X128895000Y-95490000D01*
X149785000Y-95490000D01*
X150500000Y-95490000D01*
X150500000Y-94600000D01*
X153500000Y-94600000D01*
X153500000Y-95490000D01*
X153680000Y-95490000D01*
X153680000Y-94600000D01*
X156680000Y-94600000D01*
X156680000Y-95490000D01*
X157395000Y-95490000D01*
X157395000Y-95052172D01*
X157394999Y-95052155D01*
X157388598Y-94992627D01*
X157388596Y-94992620D01*
X157338354Y-94857913D01*
X157338350Y-94857906D01*
X157252190Y-94742812D01*
X157252187Y-94742809D01*
X157137093Y-94656649D01*
X157137086Y-94656645D01*
X157002379Y-94606403D01*
X157002372Y-94606401D01*
X156942844Y-94600000D01*
X156680000Y-94600000D01*
X153680000Y-94600000D01*
X153500000Y-94600000D01*
X150500000Y-94600000D01*
X150237155Y-94600000D01*
X150177627Y-94606401D01*
X150177620Y-94606403D01*
X150042913Y-94656645D01*
X150042906Y-94656649D01*
X149927812Y-94742809D01*
X149927809Y-94742812D01*
X149841649Y-94857906D01*
X149841645Y-94857913D01*
X149791403Y-94992620D01*
X149791401Y-94992627D01*
X149785000Y-95052155D01*
X149785000Y-95490000D01*
X128895000Y-95490000D01*
X128895000Y-95297172D01*
X128894999Y-95297155D01*
X128888598Y-95237627D01*
X128888596Y-95237620D01*
X128838354Y-95102913D01*
X128838350Y-95102906D01*
X128752190Y-94987812D01*
X128752187Y-94987809D01*
X128637093Y-94901649D01*
X128637086Y-94901645D01*
X128502379Y-94851403D01*
X128502372Y-94851401D01*
X128442844Y-94845000D01*
X128180000Y-94845000D01*
X128179999Y-95734999D01*
X125180000Y-95734999D01*
X125180000Y-94845000D01*
X125000000Y-94845000D01*
X122000000Y-94845000D01*
X121737155Y-94845000D01*
X121677627Y-94851401D01*
X121677620Y-94851403D01*
X121542913Y-94901645D01*
X121542906Y-94901649D01*
X121427812Y-94987809D01*
X121427809Y-94987812D01*
X121341649Y-95102906D01*
X121341645Y-95102913D01*
X121291403Y-95237620D01*
X121291401Y-95237627D01*
X121285000Y-95297155D01*
X121285000Y-95735000D01*
X119500000Y-95735000D01*
X119500000Y-94369000D01*
X119519685Y-94301961D01*
X119572489Y-94256206D01*
X119624000Y-94245000D01*
X158876000Y-94245000D01*
X158943039Y-94264685D01*
G37*
%TD.AperFunction*%
%TD*%
%TA.AperFunction,Conductor*%
%TO.N,Net-(J2-Pin_2)*%
G36*
X131443039Y-71019685D02*
G01*
X131488794Y-71072489D01*
X131500000Y-71124000D01*
X131500000Y-83484733D01*
X131496298Y-83514807D01*
X130499999Y-87499999D01*
X130500000Y-93376000D01*
X130480315Y-93443039D01*
X130427511Y-93488794D01*
X130376000Y-93500000D01*
X119624000Y-93500000D01*
X119556961Y-93480315D01*
X119511206Y-93427511D01*
X119500000Y-93376000D01*
X119500000Y-91245000D01*
X121285000Y-91245000D01*
X121285000Y-91682844D01*
X121291401Y-91742372D01*
X121291403Y-91742379D01*
X121341645Y-91877086D01*
X121341649Y-91877093D01*
X121427809Y-91992187D01*
X121427812Y-91992190D01*
X121542906Y-92078350D01*
X121542913Y-92078354D01*
X121677620Y-92128596D01*
X121677627Y-92128598D01*
X121737155Y-92134999D01*
X121737172Y-92135000D01*
X122000000Y-92135000D01*
X122000000Y-91245000D01*
X125000000Y-91245000D01*
X125000000Y-92135000D01*
X125180000Y-92135000D01*
X125180000Y-92134999D01*
X128179999Y-92134999D01*
X128180000Y-92135000D01*
X128442828Y-92135000D01*
X128442844Y-92134999D01*
X128502372Y-92128598D01*
X128502379Y-92128596D01*
X128637086Y-92078354D01*
X128637093Y-92078350D01*
X128752187Y-91992190D01*
X128752190Y-91992187D01*
X128838350Y-91877093D01*
X128838354Y-91877086D01*
X128888596Y-91742379D01*
X128888598Y-91742372D01*
X128894999Y-91682844D01*
X128895000Y-91682827D01*
X128895000Y-91245000D01*
X128180000Y-91245000D01*
X128179999Y-92134999D01*
X125180000Y-92134999D01*
X125180000Y-91245000D01*
X125000000Y-91245000D01*
X122000000Y-91245000D01*
X121285000Y-91245000D01*
X119500000Y-91245000D01*
X119500000Y-89838542D01*
X122610000Y-89838542D01*
X122648897Y-90021539D01*
X122648897Y-90021540D01*
X122724990Y-90192449D01*
X122779975Y-90268128D01*
X122834958Y-90343806D01*
X122834959Y-90343807D01*
X122834960Y-90343808D01*
X122834962Y-90343811D01*
X122919535Y-90419959D01*
X122973990Y-90468991D01*
X123136011Y-90562534D01*
X123313939Y-90620346D01*
X123453361Y-90635000D01*
X123453366Y-90635000D01*
X123546634Y-90635000D01*
X123546639Y-90635000D01*
X123686061Y-90620346D01*
X123863989Y-90562534D01*
X124026010Y-90468991D01*
X124134919Y-90370928D01*
X124165037Y-90343811D01*
X124165037Y-90343809D01*
X124165042Y-90343806D01*
X124275008Y-90192451D01*
X124351102Y-90021540D01*
X124390000Y-89838543D01*
X124390000Y-89838542D01*
X125790000Y-89838542D01*
X125828897Y-90021539D01*
X125828897Y-90021540D01*
X125904990Y-90192449D01*
X125959975Y-90268128D01*
X126014958Y-90343806D01*
X126014959Y-90343807D01*
X126014960Y-90343808D01*
X126014962Y-90343811D01*
X126099535Y-90419959D01*
X126153990Y-90468991D01*
X126316011Y-90562534D01*
X126493939Y-90620346D01*
X126633361Y-90635000D01*
X126633366Y-90635000D01*
X126726634Y-90635000D01*
X126726639Y-90635000D01*
X126866061Y-90620346D01*
X127043989Y-90562534D01*
X127206010Y-90468991D01*
X127314919Y-90370928D01*
X127345037Y-90343811D01*
X127345037Y-90343809D01*
X127345042Y-90343806D01*
X127455008Y-90192451D01*
X127531102Y-90021540D01*
X127570000Y-89838543D01*
X127570000Y-89651457D01*
X127531102Y-89468460D01*
X127531102Y-89468459D01*
X127455009Y-89297550D01*
X127427516Y-89259710D01*
X127345042Y-89146194D01*
X127345039Y-89146191D01*
X127345037Y-89146188D01*
X127254440Y-89064615D01*
X127206010Y-89021009D01*
X127043989Y-88927466D01*
X127043988Y-88927465D01*
X127043987Y-88927465D01*
X126866062Y-88869654D01*
X126842824Y-88867211D01*
X126726639Y-88855000D01*
X126633361Y-88855000D01*
X126533773Y-88865467D01*
X126493937Y-88869654D01*
X126316012Y-88927465D01*
X126153991Y-89021008D01*
X126014962Y-89146188D01*
X126014960Y-89146191D01*
X125904990Y-89297550D01*
X125828897Y-89468459D01*
X125828897Y-89468460D01*
X125790000Y-89651457D01*
X125790000Y-89838542D01*
X124390000Y-89838542D01*
X124390000Y-89651457D01*
X124351102Y-89468460D01*
X124351102Y-89468459D01*
X124275009Y-89297550D01*
X124247516Y-89259710D01*
X124165042Y-89146194D01*
X124165039Y-89146191D01*
X124165037Y-89146188D01*
X124074440Y-89064615D01*
X124026010Y-89021009D01*
X123863989Y-88927466D01*
X123863988Y-88927465D01*
X123863987Y-88927465D01*
X123686062Y-88869654D01*
X123662824Y-88867211D01*
X123546639Y-88855000D01*
X123453361Y-88855000D01*
X123353773Y-88865467D01*
X123313937Y-88869654D01*
X123136012Y-88927465D01*
X122973991Y-89021008D01*
X122834962Y-89146188D01*
X122834960Y-89146191D01*
X122724990Y-89297550D01*
X122648897Y-89468459D01*
X122648897Y-89468460D01*
X122610000Y-89651457D01*
X122610000Y-89838542D01*
X119500000Y-89838542D01*
X119500000Y-88245000D01*
X121285000Y-88245000D01*
X122000000Y-88245000D01*
X122000000Y-87355000D01*
X125000000Y-87355000D01*
X125000000Y-88245000D01*
X125180000Y-88245000D01*
X125180000Y-88244999D01*
X128179999Y-88244999D01*
X128180000Y-88245000D01*
X128895000Y-88245000D01*
X128895000Y-87807172D01*
X128894999Y-87807155D01*
X128888598Y-87747627D01*
X128888596Y-87747620D01*
X128838354Y-87612913D01*
X128838350Y-87612906D01*
X128752190Y-87497812D01*
X128752187Y-87497809D01*
X128637093Y-87411649D01*
X128637086Y-87411645D01*
X128502379Y-87361403D01*
X128502372Y-87361401D01*
X128442844Y-87355000D01*
X128180000Y-87355000D01*
X128179999Y-88244999D01*
X125180000Y-88244999D01*
X125180000Y-87355000D01*
X125000000Y-87355000D01*
X122000000Y-87355000D01*
X121737155Y-87355000D01*
X121677627Y-87361401D01*
X121677620Y-87361403D01*
X121542913Y-87411645D01*
X121542906Y-87411649D01*
X121427812Y-87497809D01*
X121427809Y-87497812D01*
X121341649Y-87612906D01*
X121341645Y-87612913D01*
X121291403Y-87747620D01*
X121291401Y-87747627D01*
X121285000Y-87807155D01*
X121285000Y-88245000D01*
X119500000Y-88245000D01*
X119500000Y-87515265D01*
X119503702Y-87485191D01*
X120500000Y-83500000D01*
X120500000Y-75452499D01*
X127464537Y-75452499D01*
X127464538Y-75452500D01*
X127675462Y-75452500D01*
X127675462Y-75452499D01*
X127570000Y-75347038D01*
X127464537Y-75452499D01*
X120500000Y-75452499D01*
X120500000Y-74000005D01*
X126112522Y-74000005D01*
X126120972Y-74101987D01*
X126138147Y-74084812D01*
X126871500Y-74084812D01*
X126912094Y-74249509D01*
X126912094Y-74249510D01*
X126912095Y-74249511D01*
X126990924Y-74399707D01*
X127103407Y-74526675D01*
X127243004Y-74623031D01*
X127243005Y-74623031D01*
X127243007Y-74623033D01*
X127401609Y-74683184D01*
X127401610Y-74683184D01*
X127527747Y-74698500D01*
X127527750Y-74698500D01*
X127612253Y-74698500D01*
X127706854Y-74687013D01*
X127738390Y-74683184D01*
X127896993Y-74623033D01*
X128036593Y-74526675D01*
X128149076Y-74399707D01*
X128227905Y-74249511D01*
X128268500Y-74084813D01*
X128268500Y-74000001D01*
X128917038Y-74000001D01*
X129019025Y-74101988D01*
X129019026Y-74101988D01*
X129027478Y-74000004D01*
X129027478Y-73999995D01*
X129019026Y-73898011D01*
X128917038Y-74000000D01*
X128917038Y-74000001D01*
X128268500Y-74000001D01*
X128268500Y-73915187D01*
X128227905Y-73750489D01*
X128149076Y-73600293D01*
X128036593Y-73473325D01*
X127896994Y-73376968D01*
X127896996Y-73376968D01*
X127738389Y-73316815D01*
X127612253Y-73301500D01*
X127612250Y-73301500D01*
X127527750Y-73301500D01*
X127527747Y-73301500D01*
X127401610Y-73316815D01*
X127243004Y-73376968D01*
X127103407Y-73473324D01*
X126990923Y-73600294D01*
X126912094Y-73750490D01*
X126871500Y-73915187D01*
X126871500Y-74084812D01*
X126138147Y-74084812D01*
X126222961Y-73999999D01*
X126120972Y-73898011D01*
X126112522Y-73999994D01*
X126112522Y-74000005D01*
X120500000Y-74000005D01*
X120500000Y-72547500D01*
X127464537Y-72547500D01*
X127570000Y-72652962D01*
X127675462Y-72547500D01*
X127464537Y-72547500D01*
X120500000Y-72547500D01*
X120500000Y-71124000D01*
X120519685Y-71056961D01*
X120572489Y-71011206D01*
X120624000Y-71000000D01*
X131376000Y-71000000D01*
X131443039Y-71019685D01*
G37*
%TD.AperFunction*%
%TD*%
%TA.AperFunction,Conductor*%
%TO.N,Net-(J1-Pin_2)*%
G36*
X158943039Y-71019685D02*
G01*
X158988794Y-71072489D01*
X159000000Y-71124000D01*
X159000000Y-93376000D01*
X158980315Y-93443039D01*
X158927511Y-93488794D01*
X158876000Y-93500000D01*
X148124000Y-93500000D01*
X148056961Y-93480315D01*
X148011206Y-93427511D01*
X148000000Y-93376000D01*
X148000000Y-91000000D01*
X149785000Y-91000000D01*
X149785000Y-91437844D01*
X149791401Y-91497372D01*
X149791403Y-91497379D01*
X149841645Y-91632086D01*
X149841649Y-91632093D01*
X149927809Y-91747187D01*
X149927812Y-91747190D01*
X150042906Y-91833350D01*
X150042913Y-91833354D01*
X150177620Y-91883596D01*
X150177627Y-91883598D01*
X150237155Y-91889999D01*
X150237172Y-91890000D01*
X150500000Y-91890000D01*
X150500000Y-91000000D01*
X153500000Y-91000000D01*
X153500000Y-91890000D01*
X153680000Y-91890000D01*
X153680000Y-91000000D01*
X156680000Y-91000000D01*
X156680000Y-91890000D01*
X156942828Y-91890000D01*
X156942844Y-91889999D01*
X157002372Y-91883598D01*
X157002379Y-91883596D01*
X157137086Y-91833354D01*
X157137093Y-91833350D01*
X157252187Y-91747190D01*
X157252190Y-91747187D01*
X157338350Y-91632093D01*
X157338354Y-91632086D01*
X157388596Y-91497379D01*
X157388598Y-91497372D01*
X157394999Y-91437844D01*
X157395000Y-91437827D01*
X157395000Y-91000000D01*
X156680000Y-91000000D01*
X153680000Y-91000000D01*
X153500000Y-91000000D01*
X150500000Y-91000000D01*
X149785000Y-91000000D01*
X148000000Y-91000000D01*
X148000000Y-89593542D01*
X151110000Y-89593542D01*
X151148897Y-89776539D01*
X151148897Y-89776540D01*
X151224990Y-89947449D01*
X151279975Y-90023128D01*
X151334958Y-90098806D01*
X151334959Y-90098807D01*
X151334960Y-90098808D01*
X151334962Y-90098811D01*
X151419535Y-90174959D01*
X151473990Y-90223991D01*
X151636011Y-90317534D01*
X151813939Y-90375346D01*
X151953361Y-90390000D01*
X151953366Y-90390000D01*
X152046634Y-90390000D01*
X152046639Y-90390000D01*
X152186061Y-90375346D01*
X152363989Y-90317534D01*
X152526010Y-90223991D01*
X152634919Y-90125928D01*
X152665037Y-90098811D01*
X152665037Y-90098809D01*
X152665042Y-90098806D01*
X152775008Y-89947451D01*
X152851102Y-89776540D01*
X152890000Y-89593543D01*
X152890000Y-89593542D01*
X154290000Y-89593542D01*
X154328897Y-89776539D01*
X154328897Y-89776540D01*
X154404990Y-89947449D01*
X154459975Y-90023128D01*
X154514958Y-90098806D01*
X154514959Y-90098807D01*
X154514960Y-90098808D01*
X154514962Y-90098811D01*
X154599535Y-90174959D01*
X154653990Y-90223991D01*
X154816011Y-90317534D01*
X154993939Y-90375346D01*
X155133361Y-90390000D01*
X155133366Y-90390000D01*
X155226634Y-90390000D01*
X155226639Y-90390000D01*
X155366061Y-90375346D01*
X155543989Y-90317534D01*
X155706010Y-90223991D01*
X155814919Y-90125928D01*
X155845037Y-90098811D01*
X155845037Y-90098809D01*
X155845042Y-90098806D01*
X155955008Y-89947451D01*
X156031102Y-89776540D01*
X156070000Y-89593543D01*
X156070000Y-89406457D01*
X156031102Y-89223460D01*
X156031102Y-89223459D01*
X155955009Y-89052550D01*
X155927516Y-89014710D01*
X155845042Y-88901194D01*
X155845039Y-88901191D01*
X155845037Y-88901188D01*
X155754440Y-88819615D01*
X155706010Y-88776009D01*
X155543989Y-88682466D01*
X155543988Y-88682465D01*
X155543987Y-88682465D01*
X155366062Y-88624654D01*
X155342823Y-88622211D01*
X155226639Y-88610000D01*
X155133361Y-88610000D01*
X155033773Y-88620467D01*
X154993937Y-88624654D01*
X154816012Y-88682465D01*
X154653991Y-88776008D01*
X154514962Y-88901188D01*
X154514960Y-88901191D01*
X154404990Y-89052550D01*
X154328897Y-89223459D01*
X154328897Y-89223460D01*
X154290000Y-89406457D01*
X154290000Y-89593542D01*
X152890000Y-89593542D01*
X152890000Y-89406457D01*
X152851102Y-89223460D01*
X152851102Y-89223459D01*
X152775009Y-89052550D01*
X152747516Y-89014710D01*
X152665042Y-88901194D01*
X152665039Y-88901191D01*
X152665037Y-88901188D01*
X152574440Y-88819615D01*
X152526010Y-88776009D01*
X152363989Y-88682466D01*
X152363988Y-88682465D01*
X152363987Y-88682465D01*
X152186062Y-88624654D01*
X152162823Y-88622211D01*
X152046639Y-88610000D01*
X151953361Y-88610000D01*
X151853773Y-88620467D01*
X151813937Y-88624654D01*
X151636012Y-88682465D01*
X151473991Y-88776008D01*
X151334962Y-88901188D01*
X151334960Y-88901191D01*
X151224990Y-89052550D01*
X151148897Y-89223459D01*
X151148897Y-89223460D01*
X151110000Y-89406457D01*
X151110000Y-89593542D01*
X148000000Y-89593542D01*
X148000000Y-88000000D01*
X149785000Y-88000000D01*
X150500000Y-88000000D01*
X150500000Y-87110000D01*
X153500000Y-87110000D01*
X153500000Y-88000000D01*
X153680000Y-88000000D01*
X153680000Y-87110000D01*
X156680000Y-87110000D01*
X156680000Y-88000000D01*
X157395000Y-88000000D01*
X157395000Y-87562172D01*
X157394999Y-87562155D01*
X157388598Y-87502627D01*
X157388596Y-87502620D01*
X157338354Y-87367913D01*
X157338350Y-87367906D01*
X157252190Y-87252812D01*
X157252187Y-87252809D01*
X157137093Y-87166649D01*
X157137086Y-87166645D01*
X157002379Y-87116403D01*
X157002372Y-87116401D01*
X156942844Y-87110000D01*
X156680000Y-87110000D01*
X153680000Y-87110000D01*
X153500000Y-87110000D01*
X150500000Y-87110000D01*
X150237155Y-87110000D01*
X150177627Y-87116401D01*
X150177620Y-87116403D01*
X150042913Y-87166645D01*
X150042906Y-87166649D01*
X149927812Y-87252809D01*
X149927809Y-87252812D01*
X149841649Y-87367906D01*
X149841645Y-87367913D01*
X149791403Y-87502620D01*
X149791401Y-87502627D01*
X149785000Y-87562155D01*
X149785000Y-88000000D01*
X148000000Y-88000000D01*
X148000000Y-75452499D01*
X151594537Y-75452499D01*
X151594538Y-75452500D01*
X151805462Y-75452500D01*
X151805462Y-75452499D01*
X151700000Y-75347038D01*
X151594537Y-75452499D01*
X148000000Y-75452499D01*
X148000000Y-74000005D01*
X150242522Y-74000005D01*
X150250972Y-74101987D01*
X150250973Y-74101988D01*
X150268149Y-74084812D01*
X151001500Y-74084812D01*
X151042094Y-74249509D01*
X151042094Y-74249510D01*
X151042095Y-74249511D01*
X151120924Y-74399707D01*
X151233407Y-74526675D01*
X151373004Y-74623031D01*
X151373005Y-74623031D01*
X151373007Y-74623033D01*
X151531610Y-74683184D01*
X151657747Y-74698500D01*
X151657750Y-74698500D01*
X151742253Y-74698500D01*
X151836854Y-74687013D01*
X151868390Y-74683184D01*
X152026993Y-74623033D01*
X152166593Y-74526675D01*
X152279076Y-74399707D01*
X152357905Y-74249511D01*
X152398500Y-74084813D01*
X152398500Y-74000001D01*
X153047038Y-74000001D01*
X153149025Y-74101988D01*
X153149026Y-74101988D01*
X153157478Y-74000004D01*
X153157478Y-73999995D01*
X153149026Y-73898011D01*
X153047038Y-74000000D01*
X153047038Y-74000001D01*
X152398500Y-74000001D01*
X152398500Y-73915187D01*
X152357905Y-73750489D01*
X152279076Y-73600293D01*
X152166593Y-73473325D01*
X152026994Y-73376968D01*
X152026996Y-73376968D01*
X151868389Y-73316815D01*
X151742253Y-73301500D01*
X151742250Y-73301500D01*
X151657750Y-73301500D01*
X151657747Y-73301500D01*
X151531610Y-73316815D01*
X151373004Y-73376968D01*
X151233407Y-73473324D01*
X151120923Y-73600294D01*
X151042094Y-73750490D01*
X151001500Y-73915187D01*
X151001500Y-74084812D01*
X150268149Y-74084812D01*
X150352961Y-74000000D01*
X150250972Y-73898011D01*
X150242522Y-73999994D01*
X150242522Y-74000005D01*
X148000000Y-74000005D01*
X148000000Y-72547500D01*
X151594539Y-72547500D01*
X151700000Y-72652960D01*
X151805461Y-72547500D01*
X151594539Y-72547500D01*
X148000000Y-72547500D01*
X148000000Y-71124000D01*
X148019685Y-71056961D01*
X148072489Y-71011206D01*
X148124000Y-71000000D01*
X158876000Y-71000000D01*
X158943039Y-71019685D01*
G37*
%TD.AperFunction*%
%TD*%
M02*
